<svg   id="chart"   width="1000"   height="500"   viewBox="0 0 1000 500"   xmlns="http://www.w3.org/2000/svg" >      <path d="M 0,493.55772341162185 C 10.6,490.09648485725944 31.800000000000004,481.146002380084 53,476.2515306398098 C 74.2,471.3570588995356 84.8,474.6514140942875 106,469.085364710251 C 127.2,463.5193153262145 137.8,456.46206830289225 159,448.42128371962735 C 180.2,440.38049913636246 190.8,440.42205685725105 212,428.88144179392657 C 233.2,417.3408267306021 243.8,404.41617944765466 265,390.71820840300495 C 286.2,377.02023735835525 296.8,365.5388577497529 318,360.3915865706781 C 339.2,355.2443153916033 349.8,374.4610600545959 371,364.9818525076312 C 392.2,355.50264496066643 402.8,324.2418451183405 424,312.9955488358544 C 445.2,301.74925255336825 455.8,306.9996391471858 477,308.75037109520053 C 498.2,310.50110304321527 508.8,324.89974824459006 530,321.7492085759281 C 551.2,318.59866890726613 561.8,297.84086029088803 583,292.9976727518907 C 604.2,288.1544852128934 614.8,301.32574044630957 636,297.5332708809415 C 657.2,293.7408013155734 667.8,300.42321091630373 689,274.03532492505036 C 710.2,247.647438933797 720.8,170.80126922242204 742,165.59384092467468 C 763.2,160.38641262692732 773.8,235.40523122920922 795,247.99818343631364 C 816.2,260.59113564341806 826.8,241.0454978119156 848,228.55860196019677 C 869.2,216.07170610847794 879.8,209.62828050135644 901,185.5637041777195 C 922.2,161.49912785408256 932.8,129.26324616868314 954,108.23572034201209 C 975.2,87.20819451534103 996.4,85.98800410389379 1007,80.42607504436421,L 1000 500,L 0 500Z" fill="#444cf71a" />   <path d="M 0,493.55772341162185 C 10.6,490.09648485725944 31.800000000000004,481.146002380084 53,476.2515306398098 C 74.2,471.3570588995356 84.8,474.6514140942875 106,469.085364710251 C 127.2,463.5193153262145 137.8,456.46206830289225 159,448.42128371962735 C 180.2,440.38049913636246 190.8,440.42205685725105 212,428.88144179392657 C 233.2,417.3408267306021 243.8,404.41617944765466 265,390.71820840300495 C 286.2,377.02023735835525 296.8,365.5388577497529 318,360.3915865706781 C 339.2,355.2443153916033 349.8,374.4610600545959 371,364.9818525076312 C 392.2,355.50264496066643 402.8,324.2418451183405 424,312.9955488358544 C 445.2,301.74925255336825 455.8,306.9996391471858 477,308.75037109520053 C 498.2,310.50110304321527 508.8,324.89974824459006 530,321.7492085759281 C 551.2,318.59866890726613 561.8,297.84086029088803 583,292.9976727518907 C 604.2,288.1544852128934 614.8,301.32574044630957 636,297.5332708809415 C 657.2,293.7408013155734 667.8,300.42321091630373 689,274.03532492505036 C 710.2,247.647438933797 720.8,170.80126922242204 742,165.59384092467468 C 763.2,160.38641262692732 773.8,235.40523122920922 795,247.99818343631364 C 816.2,260.59113564341806 826.8,241.0454978119156 848,228.55860196019677 C 869.2,216.07170610847794 879.8,209.62828050135644 901,185.5637041777195 C 922.2,161.49912785408256 932.8,129.26324616868314 954,108.23572034201209 C 975.2,87.20819451534103 996.4,85.98800410389379 1007,80.42607504436421" fill="none" stroke="#444cf7" stroke-width="4px" />   <g>   		<circle cx="0" cy="493.55772341162185" r="8" fill="#444cf7" />,		<circle cx="53" cy="476.2515306398098" r="8" fill="#444cf7" />,		<circle cx="106" cy="469.085364710251" r="8" fill="#444cf7" />,		<circle cx="159" cy="448.42128371962735" r="8" fill="#444cf7" />,		<circle cx="212" cy="428.88144179392657" r="8" fill="#444cf7" />,		<circle cx="265" cy="390.71820840300495" r="8" fill="#444cf7" />,		<circle cx="318" cy="360.3915865706781" r="8" fill="#444cf7" />,		<circle cx="371" cy="364.9818525076312" r="8" fill="#444cf7" />,		<circle cx="424" cy="312.9955488358544" r="8" fill="#444cf7" />,		<circle cx="477" cy="308.75037109520053" r="8" fill="#444cf7" />,		<circle cx="530" cy="321.7492085759281" r="8" fill="#444cf7" />,		<circle cx="583" cy="292.9976727518907" r="8" fill="#444cf7" />,		<circle cx="636" cy="297.5332708809415" r="8" fill="#444cf7" />,		<circle cx="689" cy="274.03532492505036" r="8" fill="#444cf7" />,		<circle cx="742" cy="165.59384092467468" r="8" fill="#444cf7" />,		<circle cx="795" cy="247.99818343631364" r="8" fill="#444cf7" />,		<circle cx="848" cy="228.55860196019677" r="8" fill="#444cf7" />,		<circle cx="901" cy="185.5637041777195" r="8" fill="#444cf7" />,		<circle cx="954" cy="108.23572034201209" r="8" fill="#444cf7" />,		<circle cx="1007" cy="80.42607504436421" r="8" fill="#444cf7" />   </g> </svg>