<svg xmlns="http://www.w3.org/2000/svg" version="1.1" xmlns:xlink="http://www.w3.org/1999/xlink" xmlns:svgjs="http://svgjs.dev/svgjs" width="1000" height="234" viewBox="0 0 1000 234"><g transform="matrix(1,0,0,1,-0.6060606060606233,-0.2798797999319902)"><svg viewBox="0 0 396 93" data-background-color="#ffffff" preserveAspectRatio="xMidYMid meet" height="234" width="1000" xmlns="http://www.w3.org/2000/svg" xmlns:xlink="http://www.w3.org/1999/xlink"><defs></defs><g id="tight-bounds" transform="matrix(1,0,0,1,0.2400000000000091,0.11123427946014885)"><svg viewBox="0 0 395.52 92.7775314410797" height="92.7775314410797" width="395.52"><g><svg viewBox="0 0 549.3773358834442 128.86800428029645" height="92.7775314410797" width="395.52"><g transform="matrix(1,0,0,1,0,37.97077461686368)"><svg viewBox="0 0 395.52 52.92645504656909" height="52.92645504656909" width="395.52"><g><svg viewBox="0 0 395.52 52.92645504656909" height="52.92645504656909" width="395.52"><g><svg viewBox="0 0 395.52 52.92645504656909" height="52.92645504656909" width="395.52"><g transform="matrix(1,0,0,1,0,0)"><svg width="395.52" viewBox="2.5 -35 270.67999267578125 35.20000076293945" height="52.92645504656909" data-palette-color="#000000"><g class="undefined-text-0" data-fill-palette-color="primary" id="text-0"><path d="M5.15-33.95L2.5-34.25 2.55-35 13.25-35Q24.05-35 24.05-26.55L24.05-26.55Q24.05-23.3 19.75-19.45L19.75-19.45Q26.1-17.9 26.1-10.35L26.1-10.35Q26.1-4.45 23.13-2.23 20.15 0 14 0L14 0 12.55 0 2.5 0.05 2.55-0.65 5.15-1Q5.65-1.05 5.75-1.65L5.75-1.65 5.75-33.25Q5.65-33.9 5.15-33.95L5.15-33.95ZM15-19.15L15-19.15 9.15-19.15 9.15-0.75 13.75-0.75Q22.7-0.75 22.7-10.15L22.7-10.15Q22.7-14.95 20.78-17.05 18.85-19.15 15-19.15ZM9.15-19.9L15.25-19.9Q17.1-19.9 18.45-19.7L18.45-19.7Q20.65-23.15 20.65-26.25L20.65-26.25Q20.65-34.25 13-34.25L13-34.25 9.15-34.25 9.15-19.9ZM29.85-34.95L39.85-35Q39.85-34.95 39.9-34.25L39.9-34.25 36.5-33.95 36.5-15.05Q36.5-6.35 39.55-3.5L39.55-3.5Q41-2.1 42.5-1.58 44-1.05 46.02-1.05 48.05-1.05 49.7-1.6 51.35-2.15 52.9-3.6L52.9-3.6Q56.2-6.6 56.2-15.05L56.2-15.05 56.2-33.15Q56.1-33.8 55.6-33.85L55.6-33.85 52-34.2Q51.95-34.5 51.95-34.95L51.95-34.95 61.45-35Q61.45-34.95 61.5-34.25L61.5-34.25 57.35-33.8 57.35-15Q57.35 0.2 46 0.2L46 0.2Q43.25 0.2 41.17-0.38 39.1-0.95 37.15-2.5L37.15-2.5Q33.1-5.65 33.1-15L33.1-15 33.1-33.3Q32.9-33.9 32.5-33.95L32.5-33.95 29.9-34.2Q29.85-34.5 29.85-34.95L29.85-34.95ZM68.7-33.95L66.05-34.25 66.09-35 78.3-35Q85.05-35 89.12-31.08 93.2-27.15 93.2-18.3L93.2-18.3Q93.2-9.55 90.34-5.2L90.34-5.2Q87.84-1.4 82.55-0.4L82.55-0.4Q80.2 0 77.05 0L77.05 0 76.09 0 66.05 0.05 66.09-0.65 68.7-1Q69.2-1.05 69.3-1.65L69.3-1.65 69.3-33.25Q69.2-33.9 68.7-33.95L68.7-33.95ZM78.05-34.25L78.05-34.25 72.7-34.25 72.7-0.75 76.8-0.75Q79.2-0.75 80.87-1.03 82.55-1.3 84.37-2.33 86.2-3.35 87.25-5.15L87.25-5.15Q89.8-9.4 89.8-18.05L89.8-18.05Q89.8-27.05 86.25-30.8L86.25-30.8Q83-34.25 78.05-34.25ZM114.59-14.4L123.59-14.45Q123.59-14.4 123.64-13.7L123.64-13.7 121.64-13.45 121.64-1.05Q120.79-0.75 117.12-0.28 113.44 0.2 111.14 0.2 108.84 0.2 107.14-0.13 105.44-0.45 103.54-1.5 101.64-2.55 100.32-4.28 98.99-6 98.09-9 97.19-12 97.19-16L97.19-16Q97.19-24.85 101.24-29.8L101.24-29.8Q105.49-35 112.84-35L112.84-35Q115.09-35 117.72-34.58 120.34-34.15 121.44-33.75L121.44-33.75 122.04-26.55 121.09-26.2 120.44-31.55Q116.39-34.3 112.84-34.3L112.84-34.3Q107.19-34.3 103.89-29.6 100.59-24.9 100.59-16L100.59-16Q100.59-5.2 105.54-2.05L105.54-2.05Q107.04-1.1 108.32-0.83 109.59-0.55 111.89-0.55 114.19-0.55 118.64-1.2L118.64-1.2 118.84-12.7Q118.84-13.3 118.24-13.4L118.24-13.4 114.64-13.65Q114.59-13.95 114.59-14.4L114.59-14.4ZM130.84-33.95L128.19-34.25 128.24-35 149.64-35 149.59-34.85 150.24-27.8 149.24-27.4 148.44-34 134.84-34 134.84-17.85 146.79-17.85Q147.04-17.8 147.24-17.98 147.44-18.15 147.44-18.45L147.44-18.45 147.64-21.9 148.44-22 148.44-13.45Q148.39-13.45 147.69-13.4L147.69-13.4 147.49-16.85 134.84-16.85 134.84-1 149.79-1 150.74-9 151.69-8.75 150.94 0 138.24 0 128.19 0.05 128.24-0.65 130.84-1Q131.34-1.05 131.44-1.65L131.44-1.65 131.44-33.3Q131.34-33.9 130.84-33.95L130.84-33.95ZM164.29-1.65L164.29-34 155.69-34 154.89-27.4 153.94-27.8 154.44-34 154.39-34 154.49-34.4 154.54-35 154.64-34.95 154.64-35 177.34-35 177.99-27.8 176.99-27.4 176.19-34 167.44-34 167.44-0.95 171.09-0.75Q171.09-0.7 171.04 0L171.04 0 161.04 0.05Q161.04-0.4 161.09-0.65L161.09-0.65 163.69-1Q164.19-1.05 164.29-1.65L164.29-1.65ZM189.79 0L179.74 0.05 179.79-0.65 182.39-1Q182.74-1.05 182.99-1.65L182.99-1.65 193.79-35 197.09-35 208.59-0.95 212.04-0.75Q212.04-0.7 211.99 0L211.99 0 201.99 0.05Q201.99-0.4 202.04-0.65L202.04-0.65 204.64-1Q205.04-1.05 205.04-1.6L205.04-1.6 202.29-9.75 186.69-9.75 184.04-1.05 189.84-0.75Q189.84-0.7 189.79 0L189.79 0ZM201.94-10.75L194.14-34.05 186.99-10.75 201.94-10.75ZM217.48-33.95L214.83-34.25 214.88-35 227.03-35Q232.18-35 234.98-32.75 237.78-30.5 237.78-26.05L237.78-26.05Q237.78-23.15 235.56-20 233.33-16.85 231.38-15.95L231.38-15.95 240.63-0.9 243.08-0.75Q243.08-0.7 243.03 0L243.03 0 237.58 0.05 228.08-15.35 221.43-15.35 221.43-0.95 224.93-0.75Q224.93-0.7 224.88 0L224.88 0 214.83 0.05 214.88-0.65 217.48-1Q217.83-1.05 218.03-1.45L218.03-1.45 218.03-33.45Q217.88-33.9 217.48-33.95L217.48-33.95ZM226.78-34.25L226.78-34.25 221.43-34.25 221.43-16.1 229.98-16.1Q232.58-19.05 233.48-21.33 234.38-23.6 234.38-25.75L234.38-25.75Q234.38-29.95 232.43-32.1 230.48-34.25 226.78-34.25ZM262.63-34.95L272.38-35Q272.38-34.95 272.43-34.25L272.43-34.25 268.18-33.85 256.03-19.7 270.83-0.9 273.18-0.75Q273.18-0.7 273.13 0L273.13 0 267.73 0.05 253.28-18.2 253.23-18.25 253.23-0.95 256.63-0.75Q256.63-0.7 256.58 0L256.58 0 246.58 0.05Q246.58-0.4 246.63-0.65L246.63-0.65 249.23-1Q249.73-1.05 249.83-1.65L249.83-1.65 249.83-33.3Q249.63-33.9 249.23-33.95L249.23-33.95 246.63-34.2Q246.58-34.5 246.58-34.95L246.58-34.95 256.58-35Q256.58-34.95 256.63-34.25L256.63-34.25 253.23-33.95 253.23-18.3 253.33-18.35 265.58-33Q265.98-33.8 265.28-33.95L265.28-33.95 262.68-34.2Q262.63-34.5 262.63-34.95L262.63-34.95ZM253.23-18.25L253.23-18.3 253.23-18.25Z" fill="#000000" data-fill-palette-color="primary"></path></g></svg></g></svg></g></svg></g></svg></g><g transform="matrix(1,0,0,1,420.50933160314764,0)"><svg viewBox="0 0 128.86800428029645 128.86800428029645" height="128.86800428029645" width="128.86800428029645"><g><svg></svg></g><g id="icon-0"><svg viewBox="0 0 128.86800428029645 128.86800428029645" height="128.86800428029645" width="128.86800428029645"><g><path d="M0 64.434c0-35.586 28.848-64.434 64.434-64.434 35.586 0 64.434 28.848 64.434 64.434 0 35.586-28.848 64.434-64.434 64.434-35.586 0-64.434-28.848-64.434-64.434zM64.434 124.095c32.95 0 59.661-26.711 59.661-59.661 0-32.95-26.711-59.661-59.661-59.661-32.95 0-59.661 26.711-59.661 59.661 0 32.95 26.711 59.661 59.661 59.661z" data-fill-palette-color="accent" fill="#444cf7" stroke="transparent"></path></g><g transform="matrix(1,0,0,1,27.146163696664814,45.74399497351831)"><svg viewBox="0 0 74.57567688696682 37.38001433325982" height="37.38001433325982" width="74.57567688696682"><g><svg xmlns="http://www.w3.org/2000/svg" xmlns:xlink="http://www.w3.org/1999/xlink" xml:space="preserve" style="shape-rendering:geometricPrecision;text-rendering:geometricPrecision;image-rendering:optimizeQuality;" viewBox="0.0000020265579223632812 0.0000027120113372802734 14.727499008178711 7.38195276260376" x="0" y="0" fill-rule="evenodd" clip-rule="evenodd" width="74.57567688696682" height="37.38001433325982" class="icon-x-0" data-fill-palette-color="accent" id="x-0"><g fill="#444cf7" data-fill-palette-color="accent"><path class="" d="M1.757 3.091c-0.313 0.444-0.296 1.331-0.417 1.95-0.153 0.784-0.711 1.203-1.34 1.534 0.188-0.771 0.348-1.542 0.412-2.313 0.078-0.953-0.06-0.891 0.767-1.575 1.159-0.961 3.04-1.741 5.848-2.29 2.456-0.406 5.049-0.453 7.701-0.351-0.89 1.809-3.733 1.961-7.203 1.581-1.811 0.02-3.495-0.488-5.768 1.464z m8.33 2.781c-3.895 2.038-7.803-2.284-9.165 0.688 2.104-1.831 5.079 3.183 9.165-0.688z m2.489-2.547c-4.49 2.72-9.502-0.792-10.907 1.859 3.412-1.235 7.765 2.753 10.907-1.859z m0.834-1.478c-3.944 1.761-10.043-1.402-11.565 2.239 3.106-1.808 8.446 1.438 11.565-2.239z" fill="#444cf7" data-fill-palette-color="accent"></path></g></svg></g></svg></g></svg></g></svg></g></svg></g></svg><rect width="395.52" height="92.7775314410797" fill="none" stroke="none" visibility="hidden"></rect></g></svg></g></svg>